#     F------G            1 = back   (Z+) flipped vertically
#    /|     /|            2 = top    (Y+) normal
#   E------H |    Y Z     3 = front  (Z-) normal
#   | B----|-C    |/      4 = right  (X+) normal
#   |/     |/     +--X    5 = bottom (Y-) rotated 90° clockwise
#   A------D              6 = left   (X-) flipped vertically

mtllib 42.mtl
# ABCDEFGH
v  0    0    0
v  0    0    1.0
v  1.0  0    1.0
v  1.0  0    0
v  0    1.0  0
v  0    1.0  1.0
v  1.0  1.0  1.0
v  1.0  1.0  0

v  2    0    0
v  2    0    1.0
v  3.0  0    1.0
v  3.0  0    0
v  2    1.0  0
v  2    1.0  1.0
v  3.0  1.0  1.0
v  3.0  1.0  0

vt 0.0 0.0
vt 1.0 0.0
vt 1.0 0.0
vt 0.0 0.0

vn  0.0  0.0  1.0
vn  0.0  0.0 -1.0
vn  0.0  1.0  0.0
vn  0.0 -1.0  0.0
vn  1.0  0.0  0.0
vn -1.0  0.0  0.0

usemtl Material
f 1 2 3 4
f 1 2 6 5
f 1 5 8 4
f 4 8 7 3
f 3 7 6 2
f 5 6 7 8

f 9 10 11 12
f 9 10 14 13
f 9 13 16 12
f 12 16 15 11
f 11 15 14 10
f 13 14 15 16
