# Blender 4.5.2 LTS
# www.blender.org
mtllib griffin_animated.mtl
o Plane
v 0.293141 0.942757 0.659182
v 0.408552 0.774429 -0.081039
v 0.391511 1.326284 0.068876
v 0.407763 0.608232 0.161435
v 0.443482 1.145706 0.221701
v 0.424143 0.759679 0.448876
v 0.493737 1.197793 0.617611
v 0.035384 1.618408 1.361227
v -0.062270 1.562217 1.530064
v -0.117039 1.484075 1.549108
v 0.080134 1.506890 1.203280
v 0.125617 1.542286 0.029785
v 0.111069 1.667771 1.375526
v 0.220688 1.709021 1.203373
v 0.236701 1.520427 1.034015
v 0.470350 1.355090 0.575691
v 0.361517 1.214330 0.920073
v 0.286422 1.700579 0.786730
v 0.153193 1.792049 1.071105
v 0.187611 1.849248 0.816605
v 0.171507 1.801745 0.808325
v 0.190448 1.784107 0.529165
v 0.282767 1.542629 0.286802
v 0.269999 0.662873 0.646938
v 0.475366 0.978320 0.535904
v 0.155312 0.765030 0.533896
v 0.258909 0.363106 -1.280673
v 0.209832 0.593144 -1.092481
v 0.216314 0.734385 -1.279192
v 0.236159 0.665010 -0.703354
v 0.207666 0.905084 -0.860439
v 0.231059 0.602720 -1.278108
v 0.254885 0.379022 -1.465851
v 0.209533 0.883022 -0.994826
v 0.234779 1.075587 -0.427038
v 0.325992 0.926575 -0.089010
v 0.217095 1.349304 -0.411664
v 0.234084 1.278568 -0.539415
v 0.331833 0.638767 -1.148213
v 0.360520 0.779292 -0.777321
v 0.320879 1.079069 -0.662583
v 0.346839 0.371007 -1.361698
v 0.335184 1.184345 -0.146062
v 0.298129 0.866427 -0.020788
v 0.141811 0.687602 0.316664
v 0.143445 0.660520 -1.173718
v 0.105842 0.804153 -0.930625
v 0.156519 0.349779 -1.374582
v 0.401198 0.226230 0.901597
v 0.491229 0.179792 0.799316
v 0.281545 0.220734 0.882886
v 0.222775 0.157284 0.747090
v 0.510329 0.142149 1.019403
v 0.572639 0.092387 0.896950
v 0.575361 -0.002352 1.069957
v 0.404579 0.172447 1.065952
v 0.264963 0.161415 1.047613
v 0.343158 -0.002352 1.193894
v 0.131780 0.074179 0.854885
v 0.177400 0.125134 0.974880
v 0.118935 -0.002352 1.049889
v 0.427572 0.111343 0.579854
v 0.432343 0.092481 0.990399
v 0.253699 0.099697 0.987091
v 0.480465 0.025734 0.845543
v 0.241085 0.016656 0.876602
v 0.395645 -0.002476 0.598861
v 0.337194 0.232947 -1.203909
v 0.386359 0.197170 -1.305614
v 0.238688 0.230886 -1.194742
v 0.163640 0.181583 -1.291036
v 0.479263 0.120954 -1.079447
v 0.508893 0.079292 -1.206047
v 0.499159 0.000648 -1.056972
v 0.394079 0.157582 -1.007810
v 0.259198 0.150316 -0.991948
v 0.362669 0.000648 -0.875397
v 0.087152 0.072123 -1.141028
v 0.158133 0.121712 -1.036584
v 0.105974 0.000648 -0.953431
v 0.299535 0.188851 -1.417461
v 0.400107 0.081109 -1.085600
v 0.232825 0.092050 -1.046304
v 0.409151 0.018247 -1.232400
v 0.306968 0.021822 -1.094699
v 0.192833 0.014071 -1.147124
v 0.370948 0.006886 -1.168205
v 0.271068 0.000490 -1.443285
v 0.059689 1.251188 -0.767701
v 0.078054 1.176741 -0.837117
v 0.036159 0.888942 -1.012874
v 0.030992 0.721277 -1.165991
v 0.024096 0.669289 -1.345639
v 0.026445 0.703648 -1.472753
v 0.087164 0.768907 -1.578325
v 0.305427 2.015262 0.083501
v 0.344167 2.209827 0.106891
v 0.365194 2.308632 0.342038
v 0.348285 2.253257 0.602843
v 0.404871 2.496157 0.798382
v 0.507501 3.025961 0.190031
v 0.564871 3.319264 -0.031019
v 0.519698 3.090593 -0.009073
v 0.625482 3.640646 -0.982201
v 0.567423 3.403899 -0.819990
v 0.665264 3.850230 -1.602924
v 0.526866 2.523475 0.470823
v 0.565994 3.341595 -1.038056
v 0.510310 3.238168 -1.061226
v 0.474464 2.993668 -0.738633
v 0.371246 2.357634 -0.725885
v 0.292016 1.965389 -0.495427
v 0.257839 1.786019 -0.254481
v 0.531381 2.403060 0.225644
v 0.486955 2.426304 0.456858
v 0.518521 2.625942 0.474554
v 0.451406 2.737505 0.517872
v 0.556370 2.880860 0.155704
v 0.379337 1.915485 -0.015094
v 0.442911 2.232404 -0.068256
v 0.594044 2.783149 -0.296643
v 0.583027 3.085105 -0.282687
v 0.476616 2.904965 -0.922131
v 0.427576 2.774246 -0.776512
v 0.430734 2.678553 -0.921894
v 0.589181 3.024883 -0.448925
v 0.568635 2.639341 0.193908
v 0.549508 2.622608 -0.413371
v 0.379568 2.563262 -0.744986
v 0.329290 2.792441 -0.294256
v 0.394432 3.109369 -0.237623
v 0.383859 3.025011 -0.447202
v 0.312430 2.624929 -0.411142
v 0.320473 2.565710 0.479159
v 0.301623 2.457720 0.236841
v 0.313746 2.460659 0.467162
v 0.358213 2.655650 0.477018
v 0.398375 2.898313 0.149734
v 0.181905 1.946962 0.012237
v 0.285643 2.256421 -0.056165
v 0.316748 2.683946 0.200061
v 0.345169 0.026703 0.939399
v -0.286197 0.943914 0.662641
v -0.409041 0.773542 -0.076816
v -0.390960 1.326276 0.073182
v -0.407153 0.609006 0.166787
v -0.440940 1.145988 0.226140
v -0.420258 0.762541 0.453940
v -0.486791 1.198667 0.622619
v -0.061940 1.475762 1.219116
v -0.162410 1.452474 1.474952
v -0.185343 1.383169 1.508462
v -0.185077 1.488482 1.570109
v -0.157989 1.602574 1.549662
v -0.098344 1.700755 1.415581
v -0.194221 1.658540 1.293679
v -0.234414 1.593610 1.477180
v -0.227695 1.504255 1.515114
v -0.167750 1.543226 1.142357
v -0.120367 1.464509 1.345238
v -0.095486 1.729265 1.428521
v 0.048428 1.994436 0.974116
v 0.010653 1.901770 0.958480
v 0.003707 1.996675 0.666749
v 0.003991 1.912613 0.714459
v 0.001981 1.869429 0.377232
v -0.125759 1.542303 0.031268
v -0.019104 1.412804 1.157380
v -0.004240 1.041607 1.055463
v -0.242609 1.727338 1.275340
v -0.233359 1.771296 1.099134
v -0.230225 1.536545 1.009112
v -0.463850 1.355462 0.580757
v -0.355462 1.222890 0.910185
v -0.270129 1.704690 0.782978
v -0.110173 1.819682 1.025219
v -0.166193 1.852879 0.812473
v -0.156747 1.803401 0.807433
v -0.184652 1.784110 0.531394
v -0.001252 1.458433 -0.158829
v -0.003465 1.523881 -0.511962
v -0.279828 1.542626 0.290153
v -0.002365 0.868456 1.020165
v 0.001361 0.869614 0.903512
v 0.003776 0.661797 0.777865
v -0.265001 0.665399 0.652439
v -0.469702 0.980377 0.540277
v 0.002962 0.755936 0.630713
v 0.001411 0.697950 0.354989
v -0.150529 0.766344 0.536714
v -0.260416 0.362808 -1.279498
v -0.213483 0.592246 -1.089494
v -0.222116 0.734292 -1.275462
v -0.238944 0.662741 -0.699444
v -0.213396 0.902735 -0.857301
v -0.235474 0.602606 -1.275087
v -0.257300 0.380029 -1.464529
v -0.215620 0.881471 -0.990845
v -0.004079 1.409964 -0.741078
v -0.239238 1.075164 -0.424828
v -0.326803 0.925911 -0.085806
v -0.222632 1.348794 -0.409968
v -0.240804 1.277648 -0.538270
v -0.336145 0.636887 -1.144562
v -0.364680 0.775865 -0.772861
v -0.326807 1.076717 -0.659907
v -0.348765 0.370389 -1.360198
v -0.000594 0.820978 -0.120431
v -0.001977 1.000385 -0.418931
v -0.337372 1.184169 -0.142557
v -0.297978 0.865602 -0.017900
v 0.000454 0.773523 0.099254
v -0.139503 0.688103 0.319006
v -0.148082 0.660578 -1.170721
v -0.110911 0.803436 -0.927293
v -0.002240 0.903721 -0.621836
v -0.158221 0.351057 -1.373826
v -0.401166 0.226098 0.901659
v -0.491188 0.179799 0.799392
v -0.281521 0.220540 0.882957
v -0.222706 0.157270 0.747278
v -0.510329 0.142149 1.019403
v -0.572639 0.092387 0.896950
v -0.575361 -0.002352 1.069957
v -0.404579 0.172447 1.065952
v -0.264963 0.161415 1.047613
v -0.343158 -0.002352 1.193894
v -0.131779 0.074179 0.854885
v -0.177400 0.125134 0.974880
v -0.118935 -0.002352 1.049889
v -0.427723 0.114881 0.579463
v -0.432343 0.092481 0.990399
v -0.253699 0.099697 0.987091
v -0.480551 0.025651 0.845348
v -0.241103 0.016597 0.876559
v -0.395645 -0.002476 0.598861
v -0.337197 0.232891 -1.203889
v -0.386365 0.197017 -1.305561
v -0.238690 0.230858 -1.194732
v -0.163628 0.181644 -1.291063
v -0.479264 0.120954 -1.079447
v -0.508893 0.079292 -1.206047
v -0.499159 0.000648 -1.056972
v -0.394079 0.157582 -1.007810
v -0.259198 0.150316 -0.991948
v -0.362669 0.000648 -0.875397
v -0.087152 0.072123 -1.141028
v -0.158133 0.121712 -1.036584
v -0.105974 0.000648 -0.953431
v -0.299706 0.188974 -1.417384
v -0.400107 0.081109 -1.085600
v -0.232825 0.092050 -1.046304
v -0.409018 0.018103 -1.232446
v -0.306968 0.021822 -1.094699
v -0.192833 0.014071 -1.147124
v -0.370931 0.006870 -1.168212
v -0.270397 0.000809 -1.443840
v -0.067380 1.251005 -0.767927
v -0.003763 1.174541 -0.753106
v -0.003623 1.238287 -0.881924
v -0.085284 1.176508 -0.837410
v -0.002886 0.918616 -1.038260
v -0.041937 0.888830 -1.013014
v -0.002892 0.859156 -0.987629
v -0.003186 0.753328 -1.179024
v -0.037976 0.722414 -1.166452
v -0.003961 0.694086 -1.147111
v -0.002685 0.696671 -1.342229
v -0.030384 0.670295 -1.346041
v -0.003743 0.643617 -1.345854
v -0.000201 0.734077 -1.464601
v -0.028022 0.705142 -1.473383
v -0.001434 0.677985 -1.479798
v 0.003928 0.842500 -1.533025
v -0.082611 0.774063 -1.580550
v 0.000831 0.702734 -1.629031
v 0.013273 1.022964 -1.762542
v -0.305533 2.015121 0.087123
v -0.344364 2.209611 0.110960
v -0.362461 2.308460 0.346333
v -0.342077 2.253205 0.607083
v -0.396586 2.496758 0.803454
v -0.506883 3.022840 0.192895
v -0.566900 3.314479 -0.029648
v -0.521601 3.085949 -0.006527
v -0.639646 3.628961 -0.982149
v -0.579694 3.393618 -0.818803
v -0.687179 3.833428 -1.604168
v -0.522822 2.522977 0.477276
v -0.581129 3.329823 -1.036364
v -0.525910 3.226827 -1.059249
v -0.486284 2.986609 -0.734856
v -0.382668 2.357089 -0.721434
v -0.299699 1.965068 -0.491917
v -0.261998 1.785850 -0.251386
v -0.530354 2.402421 0.232203
v -0.482922 2.425924 0.462780
v -0.514513 2.625096 0.480626
v -0.446761 2.736869 0.522196
v -0.556287 2.877517 0.160317
v -0.380593 1.915187 -0.010466
v -0.445445 2.231960 -0.062878
v -0.600056 2.778152 -0.290330
v -0.588458 3.078430 -0.279238
v -0.491316 2.901815 -0.916886
v -0.440347 2.773200 -0.771487
v -0.445285 2.677839 -0.916744
v -0.596929 3.017675 -0.444587
v -0.568264 2.636868 0.200599
v -0.557210 2.620863 -0.406685
v -0.391594 2.562696 -0.740489
v -0.335511 2.789514 -0.291019
v -0.399276 3.102873 -0.236809
v -0.391703 3.018298 -0.445276
v -0.320156 2.624269 -0.407576
v -0.316393 2.565488 0.482834
v -0.300544 2.457554 0.240288
v -0.309648 2.460560 0.470780
v -0.354172 2.654721 0.480809
v -0.398369 2.894803 0.152180
v -0.182857 1.946990 0.014270
v -0.288073 2.256250 -0.052868
v -0.316318 2.681505 0.203231
v -0.000041 1.571238 0.036086
v -0.345169 0.026703 0.939399
v -0.457158 0.446458 0.656010
v 0.189539 0.447483 0.655251
v -0.406837 0.466861 0.737318
v 0.416962 0.369098 0.437400
v -0.271634 0.474174 0.759699
v -0.186245 0.449116 0.660937
v 0.182854 0.414408 0.551256
v -0.415374 0.372440 0.444328
v 0.460141 0.443529 0.649330
v 0.409955 0.466038 0.730617
v -0.180254 0.416770 0.556387
v 0.274921 0.474396 0.753316
vn 0.9944 -0.0079 -0.1051
vn 0.4143 -0.1775 0.8927
vn 0.9797 0.1310 -0.1518
vn 0.8955 0.2340 0.3786
vn 0.9936 -0.0150 -0.1117
vn 0.9983 -0.0496 -0.0308
vn 0.5724 -0.3277 0.7516
vn 0.7730 -0.5953 -0.2193
vn 0.6866 -0.7094 0.1592
vn 0.4043 0.6429 0.6506
vn 0.2274 -0.4924 0.8401
vn 0.8385 -0.4357 -0.3273
vn 0.4734 -0.7624 0.4411
vn 0.2618 0.0860 0.9613
vn 0.5894 0.6003 0.5407
vn 0.1058 -0.4217 0.9005
vn 0.6682 -0.5998 0.4402
vn 0.6682 -0.4649 0.5809
vn 0.2178 -0.6038 0.7668
vn 0.5160 -0.7479 0.4175
vn 0.8984 0.2262 0.3764
vn 0.4747 -0.1305 0.8704
vn 0.4248 0.7335 0.5306
vn 0.8027 0.1374 -0.5803
vn 0.4601 0.8491 0.2596
vn 0.3795 -0.3072 -0.8727
vn 0.8377 0.5324 0.1214
vn 0.9860 -0.0570 0.1567
vn -0.0261 0.1802 -0.9833
vn 0.8957 0.2539 0.3650
vn 0.5575 0.8300 -0.0146
vn 0.6605 0.7508 -0.0026
vn 0.4845 0.8673 -0.1140
vn 0.8193 0.5450 -0.1782
vn 0.5122 0.8205 0.2537
vn 0.6166 0.6906 -0.3779
vn 0.8092 0.5659 -0.1580
vn 0.6910 -0.7227 0.0149
vn 0.4119 -0.4679 0.7819
vn 0.7182 -0.2374 0.6540
vn 0.9760 -0.2149 -0.0347
vn 0.5110 -0.7228 -0.4652
vn 0.7172 -0.5682 0.4035
vn -0.6902 0.0254 0.7232
vn 0.4047 -0.7154 0.5696
vn 0.5419 0.6043 -0.5841
vn 0.5956 0.7838 0.1761
vn 0.9284 0.0804 -0.3629
vn 0.9933 0.0586 0.0997
vn 0.6624 0.6773 -0.3201
vn 0.6513 0.3448 -0.6759
vn 0.6670 0.7367 -0.1117
vn 0.7798 0.5627 -0.2744
vn 0.6268 0.5219 -0.5786
vn 0.5622 -0.4743 0.6775
vn 0.7763 0.0818 -0.6250
vn 0.5992 -0.7813 0.1750
vn 0.7090 -0.3921 0.5862
vn 0.7108 0.3843 -0.5891
vn 0.9210 0.1911 0.3395
vn 0.9392 -0.0072 0.3432
vn 0.3135 -0.8348 -0.4526
vn 0.9486 -0.1003 -0.3002
vn 0.9571 -0.0437 -0.2864
vn 0.0962 0.6236 -0.7758
vn 0.8957 -0.4439 -0.0256
vn 0.2457 -0.9153 -0.3192
vn 0.1158 -0.9587 0.2598
vn 0.8040 0.3446 0.4847
vn -0.5386 -0.4990 -0.6790
vn -0.4995 -0.7138 -0.4909
vn -0.6885 -0.4584 -0.5619
vn 0.0340 -0.9217 -0.3864
vn -0.7824 0.5145 -0.3509
vn -0.6505 0.7480 -0.1318
vn 0.2887 -0.8645 0.4115
vn -0.2662 -0.5388 0.7993
vn -0.8270 -0.5365 0.1681
vn 0.2466 -0.8301 -0.5001
vn -0.9476 -0.1436 -0.2854
vn -0.7874 -0.0932 -0.6093
vn -0.6212 0.4323 -0.6536
vn -0.7046 -0.4660 0.5352
vn -0.9934 -0.0737 0.0878
vn 0.6147 0.7846 0.0808
vn 0.8501 0.4675 0.2426
vn -0.1057 0.9417 0.3194
vn -0.1502 0.6178 0.7719
vn -0.6954 0.7177 -0.0372
vn -0.8704 0.4751 0.1291
vn 0.9088 -0.0181 -0.4168
vn 0.9222 -0.0428 0.3842
vn -0.9323 -0.1518 0.3284
vn 0.0271 0.4976 0.8670
vn -0.4161 0.1277 0.9003
vn 0.9607 0.2690 0.0683
vn -0.5259 0.3821 0.7599
vn -0.9788 0.2034 -0.0253
vn 0.0902 0.6378 0.7649
vn 0.6269 -0.7685 -0.1277
vn 0.6705 -0.6462 -0.3644
vn -0.6498 -0.7546 -0.0913
vn 0.6308 -0.7715 -0.0831
vn -0.3776 -0.8533 -0.3597
vn 0.6644 -0.6319 0.3991
vn -0.2874 -0.7496 0.5962
vn -0.4949 -0.0176 0.8687
vn -0.0722 -0.9930 -0.0938
vn -0.6257 0.0455 -0.7787
vn -0.7093 -0.1236 -0.6940
vn -0.4302 -0.8849 -0.1785
vn 0.0409 -0.9950 0.0913
vn -0.6490 0.2699 0.7113
vn 0.3772 0.5764 0.7250
vn 0.6665 0.7451 -0.0227
vn 0.9679 0.1907 0.1638
vn 0.0018 0.9315 0.3638
vn 0.0561 0.6373 0.7686
vn -0.6888 0.7088 0.1519
vn -0.7939 0.5374 0.2844
vn 0.7240 0.0568 -0.6875
vn 0.9863 -0.0727 0.1479
vn -0.8231 -0.1407 0.5501
vn 0.2899 0.4539 0.8426
vn -0.1547 0.1567 0.9755
vn 0.9504 0.2555 -0.1775
vn -0.3140 0.4992 0.8076
vn -0.9490 0.2481 0.1945
vn 0.3528 0.6764 0.6466
vn 0.5543 -0.7773 -0.2975
vn 0.5544 -0.7505 -0.3597
vn -0.6520 -0.7525 0.0930
vn 0.5393 -0.8141 -0.2156
vn -0.4754 -0.8369 -0.2712
vn 0.6821 -0.6840 0.2585
vn -0.2512 -0.7149 0.6526
vn 0.4225 -0.7433 0.5187
vn -0.5848 -0.4899 0.6466
vn 0.0684 -0.9886 -0.1343
vn -0.0178 -0.9827 0.1842
vn -0.6732 0.1994 -0.7121
vn -0.8601 -0.0877 -0.5026
vn -0.4835 -0.8709 -0.0878
vn 0.0249 -0.9996 0.0142
vn 0.7704 -0.0049 -0.6376
vn 0.8945 0.3079 0.3241
vn 0.3162 0.6158 0.7217
vn -0.7390 0.3552 0.5725
vn -0.6078 -0.3502 -0.7127
vn -0.0467 0.3378 -0.9401
vn 0.5665 0.4305 -0.7027
vn 0.6486 0.3308 -0.6855
vn 0.6610 -0.4523 0.5988
vn 0.6879 0.4739 -0.5497
vn 0.6939 -0.4999 0.5183
vn 0.6979 0.6789 -0.2281
vn 0.6645 -0.7242 0.1844
vn 0.7392 0.6433 0.1994
vn 0.6793 -0.7125 -0.1755
vn 0.6544 -0.7491 -0.1029
vn 0.6717 0.3839 0.6336
vn 0.6483 -0.3143 -0.6935
vn 0.7164 0.5339 0.4490
vn 0.7541 0.4590 -0.4698
vn 0.6548 -0.4227 0.6266
vn 0.6046 0.5920 -0.5329
vn 0.8573 0.4891 -0.1608
vn 0.1390 0.7452 -0.6522
vn 0.8795 0.3578 0.3139
vn 0.8221 -0.4873 -0.2943
vn 0.6766 -0.7355 0.0363
vn 0.8514 -0.4346 0.2935
vn 0.8378 0.3374 0.4292
vn 0.9335 0.0632 0.3529
vn 0.8661 0.1815 0.4657
vn 0.8595 -0.2143 -0.4641
vn 0.8835 0.2874 0.3698
vn 0.9809 0.0767 0.1788
vn 0.7754 -0.5618 -0.2883
vn 0.9499 -0.2604 -0.1728
vn 0.8212 -0.1320 0.5552
vn 0.8736 -0.4414 -0.2047
vn 0.9313 0.1053 0.3486
vn 0.9879 -0.1550 0.0057
vn 0.9954 0.0644 0.0704
vn 0.8998 -0.3999 -0.1742
vn 0.7744 -0.5778 -0.2579
vn 0.5216 -0.7069 -0.4778
vn 0.9851 -0.0770 -0.1537
vn 0.9554 0.2004 0.2171
vn 0.9975 0.0690 0.0119
vn 0.8697 -0.3990 0.2906
vn 0.8818 -0.3939 -0.2593
vn 0.9231 0.3241 0.2071
vn 0.8739 -0.4130 -0.2564
vn 0.9328 0.3100 -0.1838
vn 0.9681 -0.2174 0.1246
vn 0.9975 0.0344 0.0623
vn 0.9519 0.2800 -0.1242
vn 0.9536 -0.2921 -0.0733
vn 0.6142 -0.7486 0.2498
vn 0.9446 -0.0241 -0.3272
vn 0.6084 -0.7496 0.2606
vn 0.6990 -0.6746 -0.2375
vn 0.8928 -0.0773 -0.4437
vn -0.9296 0.3557 -0.0963
vn -0.7461 0.6143 0.2569
vn -0.9649 0.0616 -0.2555
vn -0.5518 0.7503 0.3641
vn -0.9537 0.0269 -0.2994
vn -0.9386 -0.2167 -0.2685
vn -0.8789 0.4767 -0.0155
vn -0.8497 -0.3088 -0.4274
vn -0.9351 0.3146 -0.1630
vn -0.9695 0.1378 -0.2028
vn -0.9398 0.2758 -0.2019
vn -0.9525 0.2328 -0.1962
vn -0.9714 0.1023 -0.2143
vn -0.9794 0.0210 -0.2008
vn -0.9561 -0.2904 -0.0403
vn -0.9644 0.0121 0.2640
vn -0.6977 0.5962 0.3972
vn -0.8733 0.3739 0.3123
vn -0.7372 0.5737 0.3568
vn -0.9059 0.3855 0.1750
vn -0.9348 0.1155 -0.3358
vn -0.9709 0.1928 -0.1418
vn -0.7724 0.2697 0.5751
vn -0.9713 -0.1029 -0.2144
vn -0.1626 0.9403 0.2989
vn -0.9978 0.0649 -0.0111
vn -0.9686 0.2467 0.0296
vn -0.9891 -0.0584 -0.1352
vn -0.9646 0.0318 0.2620
vn -0.9965 0.0692 0.0467
vn -0.9636 0.2559 0.0778
vn -0.9965 0.0833 0.0049
vn -0.9243 -0.2892 0.2491
vn -0.9443 -0.2646 0.1956
vn -0.7420 0.4899 0.4575
vn -0.8536 0.1200 -0.5069
vn -0.6013 0.6990 0.3870
vn -0.9006 0.1070 -0.4212
vn 0.1716 0.8522 -0.4943
vn 0.9919 -0.0380 -0.1209
vn 0.0579 -0.9939 0.0937
vn -0.7112 -0.7026 -0.0224
vn -0.9954 -0.0078 -0.0952
vn -0.4548 -0.1826 0.8717
vn -0.9813 0.1309 -0.1407
vn -0.8917 0.2339 0.3875
vn -0.9944 -0.0099 -0.1049
vn -0.9988 -0.0441 -0.0220
vn -0.7526 -0.5316 0.3885
vn -0.6711 -0.3319 -0.6629
vn -0.8486 -0.4172 -0.3253
vn -0.4579 0.8020 0.3836
vn -0.7930 -0.3063 0.5267
vn -0.6112 -0.1713 -0.7727
vn -0.8161 -0.5770 -0.0333
vn -0.6985 0.2611 0.6663
vn -0.5638 0.8097 0.1630
vn -0.6942 -0.2882 0.6595
vn -0.9317 -0.3625 -0.0226
vn -0.8881 -0.1749 0.4252
vn -0.6500 -0.7094 0.2725
vn -0.6403 -0.6912 0.3349
vn -0.8917 0.2338 0.3875
vn -0.5836 -0.0230 0.8117
vn -0.4587 0.8368 0.2988
vn -0.5973 0.3281 -0.7319
vn -0.4585 0.8460 0.2721
vn -0.3923 -0.3058 -0.8675
vn -0.8159 0.5776 -0.0268
vn -0.9898 -0.0624 0.1283
vn 0.1075 0.1210 -0.9868
vn -0.8875 0.2807 0.3654
vn -0.5624 0.8269 -0.0009
vn -0.6583 0.7527 0.0139
vn -0.4858 0.8673 -0.1082
vn -0.8190 0.5496 -0.1646
vn -0.2444 0.9462 0.2120
vn -0.6211 0.6906 -0.3705
vn -0.8109 0.5659 -0.1490
vn -0.7035 -0.7100 -0.0295
vn -0.4476 -0.4665 0.7629
vn -0.7155 -0.2301 0.6596
vn -0.9770 -0.2118 -0.0250
vn -0.5194 -0.7211 -0.4585
vn -0.7118 -0.5567 0.4282
vn 0.6988 0.0270 0.7148
vn -0.4004 -0.7136 0.5748
vn -0.5488 0.6045 -0.5774
vn -0.5947 0.7830 0.1824
vn -0.9324 0.0758 -0.3534
vn -0.9924 0.0542 0.1105
vn -0.6663 0.6759 -0.3149
vn -0.6579 0.3359 -0.6740
vn -0.6729 0.7322 -0.1054
vn -0.7861 0.5565 -0.2690
vn -0.6339 0.5193 -0.5731
vn -0.5548 -0.4858 0.6754
vn -0.7796 0.0773 -0.6215
vn -0.5907 -0.7877 0.1747
vn -0.7017 -0.3952 0.5928
vn -0.7151 0.3835 -0.5845
vn -0.9204 0.1857 0.3441
vn -0.9370 -0.0131 0.3490
vn -0.3164 -0.8354 -0.4495
vn -0.9512 -0.1029 -0.2910
vn -0.9605 -0.0449 -0.2745
vn -0.1042 0.6222 -0.7759
vn -0.8958 -0.4443 -0.0143
vn -0.2468 -0.9156 -0.3174
vn -0.1176 -0.9578 0.2622
vn -0.8024 0.3416 0.4893
vn 0.5343 -0.4906 -0.6883
vn 0.4915 -0.7199 -0.4901
vn 0.6832 -0.4626 -0.5651
vn -0.0390 -0.9227 -0.3835
vn 0.7759 0.5237 -0.3518
vn 0.6423 0.7552 -0.1309
vn -0.2831 -0.8657 0.4128
vn 0.2796 -0.5320 0.7993
vn 0.8325 -0.5295 0.1629
vn -0.2494 -0.8305 -0.4980
vn 0.9466 -0.1362 -0.2921
vn 0.7860 -0.0815 -0.6129
vn 0.6136 0.4446 -0.6526
vn 0.7111 -0.4619 0.5300
vn 0.9936 -0.0800 0.0799
vn -0.6143 0.7849 0.0809
vn -0.8501 0.4675 0.2426
vn 0.1058 0.9419 0.3187
vn 0.1502 0.6178 0.7719
vn 0.6950 0.7181 -0.0369
vn 0.8704 0.4751 0.1291
vn -0.9091 -0.0186 -0.4163
vn -0.9222 -0.0428 0.3842
vn 0.9323 -0.1518 0.3284
vn -0.0271 0.4976 0.8670
vn 0.4161 0.1277 0.9003
vn -0.9607 0.2693 0.0680
vn 0.5259 0.3820 0.7599
vn 0.9787 0.2035 -0.0254
vn -0.0904 0.6381 0.7646
vn -0.6282 -0.7673 -0.1289
vn -0.6716 -0.6453 -0.3640
vn 0.6498 -0.7546 -0.0913
vn -0.6308 -0.7715 -0.0831
vn 0.3780 -0.8531 -0.3597
vn -0.6644 -0.6318 0.3993
vn 0.2873 -0.7496 0.5963
vn 0.4949 -0.0176 0.8687
vn 0.0725 -0.9930 -0.0932
vn 0.6275 0.0430 -0.7774
vn 0.7092 -0.1229 -0.6942
vn 0.4305 -0.8847 -0.1788
vn -0.0414 -0.9950 0.0914
vn 0.6562 0.2667 0.7058
vn -0.3736 0.5773 0.7261
vn -0.6664 0.7452 -0.0231
vn -0.9679 0.1907 0.1638
vn -0.0019 0.9315 0.3636
vn -0.0561 0.6373 0.7686
vn 0.6887 0.7089 0.1521
vn 0.7939 0.5374 0.2844
vn -0.7241 0.0565 -0.6874
vn -0.9863 -0.0727 0.1479
vn 0.8231 -0.1407 0.5501
vn -0.2899 0.4539 0.8426
vn 0.1547 0.1567 0.9755
vn -0.9504 0.2555 -0.1776
vn 0.3141 0.4992 0.8076
vn 0.9490 0.2481 0.1945
vn -0.3528 0.6764 0.6465
vn -0.5548 -0.7759 -0.3003
vn -0.5547 -0.7503 -0.3596
vn 0.6520 -0.7525 0.0930
vn -0.5393 -0.8141 -0.2156
vn 0.4754 -0.8369 -0.2712
vn -0.6821 -0.6840 0.2585
vn 0.2512 -0.7149 0.6526
vn -0.4224 -0.7433 0.5187
vn 0.5848 -0.4898 0.6467
vn -0.0674 -0.9888 -0.1330
vn 0.0179 -0.9827 0.1843
vn 0.6718 0.2047 -0.7118
vn 0.8612 -0.0851 -0.5011
vn 0.4835 -0.8710 -0.0875
vn -0.0239 -0.9996 0.0133
vn -0.7717 -0.0082 -0.6360
vn -0.8963 0.2979 0.3284
vn -0.3176 0.6101 0.7258
vn 0.7382 0.3579 0.5719
vn 0.6092 -0.3391 -0.7168
vn 0.0381 0.3319 -0.9425
vn -0.5750 0.4211 -0.7015
vn -0.6470 0.3290 -0.6878
vn -0.6618 -0.4541 0.5964
vn -0.6796 0.4825 -0.5525
vn -0.7039 -0.4908 0.5134
vn -0.6743 0.6991 -0.2378
vn -0.6917 -0.7005 0.1757
vn -0.7144 0.6757 0.1817
vn -0.7088 -0.6786 -0.1924
vn -0.6943 -0.7100 -0.1177
vn -0.6636 0.4224 0.6174
vn -0.6466 -0.2720 -0.7127
vn -0.6934 0.5799 0.4277
vn -0.7536 0.4571 -0.4725
vn -0.6558 -0.4246 0.6242
vn -0.6137 0.5842 -0.5312
vn -0.8646 0.4822 -0.1415
vn -0.1466 0.7452 -0.6505
vn -0.8757 0.3603 0.3216
vn -0.8253 -0.4901 -0.2806
vn -0.6745 -0.7368 0.0455
vn -0.8468 -0.4356 0.3052
vn -0.8314 0.3406 0.4391
vn -0.9290 0.0636 0.3646
vn -0.8599 0.1858 0.4754
vn -0.8655 -0.2172 -0.4513
vn -0.8785 0.2910 0.3790
vn -0.9784 0.0785 0.1911
vn -0.7782 -0.5630 -0.2785
vn -0.9516 -0.2622 -0.1602
vn -0.8135 -0.1333 0.5660
vn -0.8754 -0.4432 -0.1930
vn -0.9269 0.1045 0.3604
vn -0.9874 -0.1571 0.0187
vn -0.9943 0.0668 0.0836
vn -0.9009 -0.4024 -0.1623
vn -0.7700 -0.5872 -0.2495
vn -0.5154 -0.7176 -0.4684
vn -0.9870 -0.0776 -0.1404
vn -0.9524 0.2024 0.2279
vn -0.9972 0.0707 0.0251
vn -0.8648 -0.4007 0.3025
vn -0.8848 -0.3959 -0.2456
vn -0.9201 0.3265 0.2166
vn -0.8764 -0.4159 -0.2428
vn -0.9357 0.3087 -0.1708
vn -0.9658 -0.2196 0.1377
vn -0.9965 0.0363 0.0754
vn -0.9513 0.2886 -0.1081
vn -0.9535 -0.2953 -0.0609
vn -0.6093 -0.7499 0.2579
vn -0.9488 -0.0257 -0.3147
vn -0.6031 -0.7509 0.2690
vn -0.6995 -0.6769 -0.2291
vn -0.8984 -0.0790 -0.4320
vn 0.9283 0.3551 -0.1104
vn 0.7487 0.6168 0.2429
vn 0.9614 0.0582 -0.2689
vn 0.5573 0.7523 0.3513
vn 0.9496 0.0225 -0.3126
vn 0.9333 -0.2245 -0.2803
vn 0.8782 0.4774 -0.0298
vn 0.8438 -0.3135 -0.4356
vn 0.9314 0.3194 -0.1745
vn 0.9665 0.1393 -0.2156
vn 0.9367 0.2772 -0.2138
vn 0.9493 0.2353 -0.2085
vn 0.9683 0.1040 -0.2270
vn 0.9766 0.0226 -0.2137
vn 0.9559 -0.2888 -0.0527
vn 0.9678 0.0139 0.2514
vn 0.7028 0.5981 0.3852
vn 0.8760 0.3777 0.3001
vn 0.7420 0.5760 0.3429
vn 0.9076 0.3878 0.1612
vn 0.9303 0.1166 -0.3479
vn 0.9686 0.1945 -0.1546
vn 0.7794 0.2714 0.5647
vn 0.9686 -0.1012 -0.2272
vn 0.1656 0.9405 0.2968
vn 0.9975 0.0662 -0.0243
vn 0.9683 0.2492 0.0169
vn 0.9873 -0.0568 -0.1483
vn 0.9678 0.0336 0.2493
vn 0.9969 0.0708 0.0336
vn 0.9644 0.2565 0.0638
vn 0.9964 0.0849 -0.0083
vn 0.9280 -0.2876 0.2370
vn 0.9472 -0.2630 0.1833
vn 0.7482 0.4929 0.4441
vn 0.8471 0.1154 -0.5187
vn 0.6067 0.7015 0.3738
vn 0.8950 0.1081 -0.4327
vn -0.1773 0.8523 -0.4921
vn -0.9933 -0.0362 -0.1100
vn -0.0573 -0.9940 0.0937
vn 0.7174 -0.6961 -0.0267
vn 0.7605 -0.5392 0.3619
vn -0.5683 -0.3290 0.7542
vn 0.4293 -0.2231 0.8752
vn -0.4776 -0.2504 0.8422
vn -0.0159 0.5029 0.8642
vn -0.9734 -0.0342 -0.2264
vn 0.8353 0.3591 0.4163
vn 0.0192 0.5200 0.8539
vn 0.9732 -0.0484 -0.2250
vn 0.4726 -0.6495 -0.5957
vn 0.8648 0.1144 0.4889
vn -0.4812 -0.6420 -0.5969
vn 0.9914 -0.0981 0.0871
vn -0.8658 0.1329 0.4823
vn -0.9922 -0.0849 0.0908
vn -0.8296 0.3663 0.4215
vt 0.784710 0.425963
vt 0.823429 0.268049
vt 0.862020 0.380558
vt 0.813560 0.806503
vt 0.895179 0.863996
vt 0.883130 0.905822
vt 0.741165 0.809701
vt 0.648301 0.811042
vt 0.617812 0.763566
vt 0.735250 0.772049
vt 0.758485 0.294217
vt 0.745739 0.377603
vt 0.641300 0.356668
vt 0.674877 0.293300
vt 0.766421 0.882177
vt 0.718231 0.859570
vt 0.655674 0.910375
vt 0.650938 0.890024
vt 0.668757 0.876909
vt 0.701333 0.889259
vt 0.689058 0.942919
vt 0.647894 0.952396
vt 0.630913 0.911617
vt 0.635854 0.882318
vt 0.657241 0.859685
vt 0.732979 0.903798
vt 0.738692 0.941029
vt 0.957720 0.693090
vt 0.937448 0.686741
vt 0.978246 0.654438
vt 0.980756 0.661475
vt 0.907612 0.734212
vt 0.891236 0.677968
vt 0.944203 0.706508
vt 0.858541 0.731994
vt 0.935400 0.755630
vt 0.921320 0.772706
vt 0.867829 0.584998
vt 0.853613 0.602147
vt 0.870436 0.644698
vt 0.786632 0.575503
vt 0.809189 0.638742
vt 0.777546 0.596274
vt 0.798247 0.644997
vt 0.796890 0.683647
vt 0.732010 0.652570
vt 0.693610 0.601994
vt 0.670550 0.708681
vt 0.603058 0.683993
vt 0.856336 0.916823
vt 0.824252 0.967689
vt 0.689343 0.416887
vt 0.743133 0.456551
vt 0.015342 0.449653
vt 0.036330 0.415348
vt 0.112550 0.441382
vt 0.084960 0.746041
vt 0.056104 0.778370
vt 0.033147 0.717304
vt 0.073595 0.395529
vt 0.547323 0.676613
vt 0.554152 0.786867
vt 0.467136 0.660850
vt 0.480913 0.731880
vt 0.458600 0.811679
vt 0.444459 0.742644
vt 0.411189 0.667617
vt 0.391064 0.777728
vt 0.332326 0.821903
vt 0.313314 0.770976
vt 0.280270 0.780049
vt 0.245170 0.846116
vt 0.211306 0.812862
vt 0.939174 0.065461
vt 0.974941 0.070667
vt 0.950812 0.135500
vt 0.915811 0.149989
vt 0.903706 0.063952
vt 0.890315 0.147293
vt 0.205078 0.843696
vt 0.261027 0.875636
vt 0.342349 0.857077
vt 0.387593 0.699407
vt 0.563412 0.853191
vt 0.526817 0.925075
vt 0.859340 0.281964
vt 0.577026 0.871206
vt 0.573571 0.948343
vt 0.039540 0.350235
vt 0.072574 0.342384
vt 0.555747 0.339517
vt 0.633229 0.376705
vt 0.545122 0.376002
vt 0.151171 0.913880
vt 0.079584 0.923839
vt 0.105902 0.838966
vt 0.179088 0.840506
vt 0.243092 0.703344
vt 0.208305 0.763717
vt 0.135141 0.744675
vt 0.212033 0.683755
vt 0.108218 0.253662
vt 0.039240 0.288362
vt 0.309423 0.947180
vt 0.231353 0.935401
vt 0.250903 0.904654
vt 0.320655 0.913173
vt 0.278976 0.749670
vt 0.396891 0.897177
vt 0.451560 0.888773
vt 0.399425 0.970414
vt 0.214564 0.907551
vt 0.831581 0.058297
vt 0.863533 0.058055
vt 0.867310 0.147418
vt 0.843090 0.122922
vt 0.082115 0.840122
vt 0.512505 0.355575
vt 0.517742 0.332352
vt 0.481097 0.340039
vt 0.548390 0.405826
vt 0.516994 0.406981
vt 0.511668 0.387886
vt 0.477625 0.403905
vt 0.057969 0.961510
vt 0.030032 0.951595
vt 0.037018 0.915983
vt 0.026320 0.990683
vt 0.579537 0.270931
vt 0.594987 0.292423
vt 0.507090 0.368394
vt 0.519739 0.422418
vt 0.012838 0.946776
vt 0.678950 0.049390
vt 0.638931 0.123888
vt 0.634180 0.095510
vt 0.606691 0.123888
vt 0.569657 0.052108
vt 0.592636 0.072420
vt 0.533870 0.085055
vt 0.578427 0.099695
vt 0.602041 0.007363
vt 0.599480 0.037467
vt 0.569199 0.012948
vt 0.152193 0.939783
vt 0.048040 0.836515
vt 0.629786 0.412214
vt 0.905690 0.478833
vt 0.869054 0.442017
vt 0.888070 0.419218
vt 0.927198 0.455182
vt 0.841174 0.409128
vt 0.906517 0.505566
vt 0.858318 0.503500
vt 0.856915 0.479759
vt 0.812124 0.490161
vt 0.930001 0.529460
vt 0.889347 0.560430
vt 0.870693 0.536250
vt 0.845547 0.567964
vt 0.980459 0.405705
vt 0.965415 0.456539
vt 0.857458 0.454784
vt 0.858538 0.522463
vt 0.811447 0.053190
vt 0.773275 0.126374
vt 0.768488 0.098308
vt 0.740756 0.126374
vt 0.709614 0.052592
vt 0.727232 0.071464
vt 0.678529 0.086377
vt 0.722194 0.096128
vt 0.740427 0.009404
vt 0.737247 0.037756
vt 0.708496 0.014675
vt 0.749597 0.089642
vt 0.976886 0.523404
vt 0.980459 0.573272
vt 0.939631 0.013318
vt 0.968267 0.024188
vt 0.913801 0.011352
vt 0.896364 0.012405
vt 0.873865 0.013960
vt 0.837448 0.016657
vt 0.366427 0.692557
vt 0.739792 0.217287
vt 0.811876 0.179139
vt 0.816311 0.192875
vt 0.744861 0.244060
vt 0.717599 0.198825
vt 0.808871 0.165221
vt 0.870887 0.176990
vt 0.867319 0.188726
vt 0.875059 0.165221
vt 0.908074 0.206814
vt 0.900144 0.212430
vt 0.916413 0.201282
vt 0.919300 0.241159
vt 0.908748 0.243044
vt 0.928659 0.236910
vt 0.947488 0.273722
vt 0.920019 0.273005
vt 0.895298 0.270760
vt 0.899481 0.338689
vt 0.715914 0.225754
vt 0.697287 0.266295
vt 0.049110 0.671409
vt 0.039041 0.563435
vt 0.079904 0.674120
vt 0.785238 0.141878
vt 0.579311 0.214208
vt 0.444780 0.218483
vt 0.599620 0.157879
vt 0.119370 0.283642
vt 0.162843 0.242868
vt 0.213807 0.244623
vt 0.179336 0.286121
vt 0.133567 0.352516
vt 0.211089 0.321992
vt 0.218977 0.352955
vt 0.195684 0.303842
vt 0.431583 0.351608
vt 0.333979 0.352493
vt 0.312086 0.315228
vt 0.384475 0.316118
vt 0.261831 0.278107
vt 0.037225 0.101412
vt 0.073295 0.041330
vt 0.166170 0.044299
vt 0.152953 0.114479
vt 0.236074 0.032220
vt 0.341798 0.049386
vt 0.220185 0.159862
vt 0.147751 0.151584
vt 0.178368 0.186830
vt 0.030990 0.184691
vt 0.371590 0.207423
vt 0.355067 0.156857
vt 0.437868 0.099819
vt 0.487273 0.096437
vt 0.481791 0.146147
vt 0.583337 0.133897
vt 0.651202 0.227324
vt 0.428145 0.261784
vt 0.436054 0.058482
vt 0.385457 0.070074
vt 0.413939 0.442173
vt 0.563545 0.494041
vt 0.429431 0.493760
vt 0.761000 0.565542
vt 0.632269 0.482579
vt 0.385736 0.388354
vt 0.359578 0.503477
vt 0.471381 0.554053
vt 0.564848 0.571734
vt 0.583148 0.550556
vt 0.481053 0.602607
vt 0.432695 0.596224
vt 0.436864 0.637074
vt 0.345600 0.551747
vt 0.387366 0.622143
vt 0.348060 0.649985
vt 0.122161 0.422045
vt 0.178211 0.416028
vt 0.212536 0.457029
vt 0.167575 0.460596
vt 0.210396 0.382055
vt 0.194476 0.398274
vt 0.310783 0.394434
vt 0.260145 0.426237
vt 0.142917 0.589322
vt 0.173873 0.666623
vt 0.218048 0.544989
vt 0.243858 0.672086
vt 0.149166 0.549356
vt 0.183090 0.517004
vt 0.030990 0.500161
vt 0.594954 0.655129
vt 1.784710 0.425963
vt 1.862020 0.380558
vt 1.823429 0.268049
vt 1.813560 0.806503
vt 1.883130 0.905822
vt 1.895179 0.863996
vt 1.741165 0.809701
vt 1.735250 0.772049
vt 1.617812 0.763566
vt 1.648301 0.811042
vt 1.758485 0.294217
vt 1.674877 0.293300
vt 1.641301 0.356668
vt 1.745739 0.377603
vt 1.766421 0.882177
vt 1.655674 0.910375
vt 1.668757 0.876909
vt 1.650938 0.890024
vt 1.689058 0.942919
vt 1.701333 0.889259
vt 1.647894 0.952396
vt 1.630913 0.911617
vt 1.635854 0.882318
vt 1.657241 0.859685
vt 1.738692 0.941029
vt 1.732979 0.903798
vt 1.957720 0.693090
vt 1.980757 0.661475
vt 1.978246 0.654438
vt 1.937448 0.686741
vt 1.907612 0.734212
vt 1.944203 0.706508
vt 1.891236 0.677968
vt 1.858541 0.731994
vt 1.921320 0.772706
vt 1.935400 0.755630
vt 1.867829 0.584998
vt 1.853613 0.602147
vt 1.870436 0.644698
vt 1.786632 0.575503
vt 1.809189 0.638742
vt 1.777546 0.596274
vt 1.798247 0.644997
vt 1.796890 0.683647
vt 1.732010 0.652570
vt 1.693610 0.601994
vt 1.670550 0.708681
vt 1.603058 0.683993
vt 1.856336 0.916823
vt 1.824252 0.967689
vt 1.689342 0.416887
vt 1.743133 0.456551
vt 1.015342 0.449653
vt 1.112550 0.441382
vt 1.036330 0.415348
vt 1.084960 0.746041
vt 1.033147 0.717304
vt 1.056104 0.778370
vt 1.073595 0.395529
vt 1.547323 0.676613
vt 1.554152 0.786867
vt 1.467136 0.660850
vt 1.480913 0.731880
vt 1.458600 0.811679
vt 1.444459 0.742644
vt 1.411189 0.667617
vt 1.391064 0.777728
vt 1.313313 0.770976
vt 1.332326 0.821903
vt 1.280270 0.780049
vt 1.245170 0.846116
vt 1.211306 0.812862
vt 1.939174 0.065461
vt 1.915811 0.149989
vt 1.950812 0.135500
vt 1.974941 0.070667
vt 1.903706 0.063952
vt 1.890315 0.147293
vt 1.205078 0.843696
vt 1.261027 0.875636
vt 1.342349 0.857077
vt 1.387594 0.699407
vt 1.526817 0.925075
vt 1.563412 0.853191
vt 1.859340 0.281964
vt 1.577026 0.871206
vt 1.573571 0.948343
vt 1.039540 0.350235
vt 1.072574 0.342384
vt 1.555747 0.339517
vt 1.545122 0.376002
vt 1.633229 0.376705
vt 1.151171 0.913880
vt 1.179088 0.840506
vt 1.105902 0.838966
vt 1.079584 0.923839
vt 1.243092 0.703344
vt 1.135141 0.744675
vt 1.208305 0.763717
vt 1.212033 0.683755
vt 1.108218 0.253662
vt 1.039240 0.288362
vt 1.309423 0.947180
vt 1.320655 0.913173
vt 1.250903 0.904654
vt 1.231353 0.935401
vt 1.278976 0.749670
vt 1.396891 0.897177
vt 1.451560 0.888773
vt 1.399426 0.970414
vt 1.214564 0.907551
vt 1.831581 0.058297
vt 1.843090 0.122922
vt 1.867310 0.147418
vt 1.863533 0.058055
vt 1.082115 0.840122
vt 1.517742 0.332352
vt 1.512506 0.355575
vt 1.481097 0.340039
vt 1.548390 0.405826
vt 1.511668 0.387886
vt 1.516994 0.406981
vt 1.477625 0.403905
vt 1.037018 0.915983
vt 1.030032 0.951595
vt 1.057969 0.961510
vt 1.026320 0.990683
vt 1.594987 0.292423
vt 1.579537 0.270931
vt 1.507090 0.368394
vt 1.519739 0.422418
vt 1.012838 0.946776
vt 1.678950 0.049390
vt 1.634180 0.095510
vt 1.638931 0.123888
vt 1.606691 0.123888
vt 1.569657 0.052108
vt 1.533870 0.085055
vt 1.592636 0.072420
vt 1.578427 0.099695
vt 1.602041 0.007363
vt 1.569199 0.012948
vt 1.599480 0.037467
vt 1.152193 0.939783
vt 1.048040 0.836515
vt 1.629786 0.412214
vt 1.905690 0.478833
vt 1.927198 0.455182
vt 1.888070 0.419218
vt 1.869054 0.442017
vt 1.841174 0.409128
vt 1.906517 0.505566
vt 1.856915 0.479759
vt 1.858318 0.503500
vt 1.812124 0.490161
vt 1.930001 0.529460
vt 1.870693 0.536250
vt 1.889347 0.560430
vt 1.845547 0.567964
vt 1.965415 0.456539
vt 1.980459 0.405705
vt 1.857458 0.454784
vt 1.858538 0.522463
vt 1.811447 0.053190
vt 1.768488 0.098308
vt 1.773275 0.126374
vt 1.740756 0.126374
vt 1.709614 0.052592
vt 1.678529 0.086377
vt 1.727232 0.071464
vt 1.722194 0.096128
vt 1.740427 0.009404
vt 1.708496 0.014675
vt 1.737247 0.037756
vt 1.749597 0.089642
vt 1.976886 0.523404
vt 1.980459 0.573272
vt 1.968267 0.024188
vt 1.939631 0.013318
vt 1.913801 0.011352
vt 1.896364 0.012405
vt 1.873865 0.013960
vt 1.837448 0.016657
vt 1.366427 0.692557
vt 1.739792 0.217287
vt 1.744861 0.244060
vt 1.816311 0.192875
vt 1.811876 0.179139
vt 1.717599 0.198825
vt 1.808871 0.165221
vt 1.867319 0.188726
vt 1.870887 0.176990
vt 1.875059 0.165221
vt 1.900144 0.212430
vt 1.908074 0.206814
vt 1.916413 0.201282
vt 1.908748 0.243044
vt 1.919300 0.241159
vt 1.928659 0.236910
vt 1.920019 0.273005
vt 1.947488 0.273722
vt 1.895298 0.270760
vt 1.899481 0.338689
vt 1.715914 0.225754
vt 1.697287 0.266295
vt 1.049110 0.671409
vt 1.079904 0.674120
vt 1.039041 0.563435
vt 1.785238 0.141878
vt 1.444780 0.218483
vt 1.579311 0.214208
vt 1.599620 0.157879
vt 1.119370 0.283642
vt 1.179337 0.286121
vt 1.213807 0.244623
vt 1.162843 0.242868
vt 1.133567 0.352516
vt 1.211089 0.321992
vt 1.218977 0.352955
vt 1.195684 0.303842
vt 1.431583 0.351608
vt 1.312086 0.315228
vt 1.333979 0.352493
vt 1.384475 0.316118
vt 1.261831 0.278107
vt 1.037225 0.101412
vt 1.152953 0.114479
vt 1.166170 0.044299
vt 1.073295 0.041330
vt 1.220185 0.159862
vt 1.341799 0.049386
vt 1.236074 0.032220
vt 1.147751 0.151584
vt 1.178368 0.186830
vt 1.030990 0.184691
vt 1.371590 0.207423
vt 1.355067 0.156857
vt 1.487273 0.096437
vt 1.437868 0.099819
vt 1.481791 0.146147
vt 1.583337 0.133897
vt 1.651202 0.227324
vt 1.428145 0.261784
vt 1.436054 0.058482
vt 1.385457 0.070074
vt 1.413939 0.442173
vt 1.429431 0.493760
vt 1.563545 0.494041
vt 1.761000 0.565542
vt 1.632269 0.482579
vt 1.385736 0.388354
vt 1.359578 0.503477
vt 1.471381 0.554053
vt 1.564848 0.571734
vt 1.583148 0.550556
vt 1.481053 0.602607
vt 1.432695 0.596224
vt 1.436864 0.637074
vt 1.345600 0.551747
vt 1.387366 0.622143
vt 1.348060 0.649985
vt 1.122161 0.422045
vt 1.167575 0.460596
vt 1.212536 0.457029
vt 1.178211 0.416028
vt 1.210396 0.382055
vt 1.194476 0.398274
vt 1.310783 0.394434
vt 1.260145 0.426237
vt 1.142917 0.589322
vt 1.173873 0.666623
vt 1.243858 0.672086
vt 1.218048 0.544989
vt 1.149166 0.549356
vt 1.183090 0.517004
vt 1.030990 0.500161
vt 1.594954 0.655129
vt 1.718231 0.859570
s 0
usemtl Material
f 25/1/1 2/2/1 5/3/1
f 17/4/2 169/5/2 183/6/2
f 7/7/3 5/8/3 3/9/3 16/10/3
f 17/4/4 7/7/4 16/10/4
f 4/11/5 6/12/5 334/13/5 329/14/5
f 2/2/6 6/12/6 4/11/6
f 1/15/7 25/16/7 7/7/7
f 9/17/8 10/18/8 151/19/8
f 151/19/9 160/20/9 8/21/9 9/17/9
f 155/22/10 154/23/10 9/17/10
f 153/24/11 152/25/11 10/18/11
f 10/18/12 152/25/12 151/19/12
f 160/20/13 150/26/13 11/27/13 8/21/13
f 153/24/14 10/18/14 9/17/14 154/23/14
f 8/21/15 155/22/15 9/17/15
f 8/28/16 13/29/16 161/30/16 155/31/16
f 11/32/17 14/33/17 13/29/17 8/34/17
f 15/35/18 14/33/18 11/32/18
f 11/32/19 150/36/19 168/37/19
f 15/35/20 11/32/20 168/37/20
f 16/10/21 15/35/21 17/4/21
f 17/4/22 15/35/22 168/37/22
f 162/38/23 161/30/23 13/29/23 14/33/23
f 163/39/24 162/38/24 14/33/24 19/40/24
f 164/41/25 163/39/25 19/40/25 20/42/25
f 165/43/26 164/41/26 20/42/26 21/44/26
f 18/45/27 20/42/27 14/33/27
f 15/35/28 18/45/28 14/33/28
f 20/42/29 18/45/29 21/44/29
f 16/10/30 18/45/30 15/35/30
f 21/44/31 22/46/31 165/43/31
f 18/45/32 22/46/32 21/44/32
f 165/43/33 22/46/33 166/47/33
f 18/45/34 16/10/34 23/48/34
f 20/42/35 19/40/35 14/33/35
f 3/9/36 12/49/36 23/48/36
f 16/10/37 3/9/37 23/48/37
f 183/6/38 184/50/38 17/4/38
f 17/4/39 184/50/39 185/51/39
f 24/52/40 6/12/40 25/1/40 1/53/40
f 6/12/41 2/2/41 25/1/41
f 185/54/42 188/55/42 1/56/42
f 1/15/43 17/4/43 185/51/43
f 26/57/44 24/58/44 1/59/44
f 188/55/45 26/60/45 1/56/45
f 180/61/46 12/49/46 3/9/46 43/62/46
f 181/63/47 180/61/47 43/62/47 37/64/47
f 35/65/48 37/64/48 43/62/48
f 38/66/49 37/64/49 35/65/49
f 199/67/50 181/63/50 37/64/50 38/66/50
f 41/68/51 40/69/51 31/70/51
f 40/69/52 34/71/52 31/70/52
f 39/72/53 29/73/53 34/71/53 40/69/53
f 42/74/54 33/75/54 32/76/54 39/77/54
f 27/78/55 42/74/55 39/77/55 28/79/55
f 29/73/56 39/72/56 32/80/56
f 28/81/57 39/72/57 40/69/57 30/82/57
f 35/65/58 30/82/58 40/69/58
f 38/66/59 89/83/59 199/67/59
f 35/65/60 41/68/60 38/66/60
f 41/68/61 35/65/61 40/69/61
f 35/65/62 36/84/62 208/85/62
f 36/84/63 35/65/63 43/62/63
f 5/8/64 36/84/64 43/62/64 3/9/64
f 5/3/65 2/2/65 44/86/65
f 36/84/66 5/8/66 44/87/66
f 208/85/67 36/84/67 44/87/67 212/88/67
f 189/89/68 45/90/68 26/60/68 188/55/68
f 50/91/69 334/13/69 335/92/69 49/93/69
f 62/94/70 52/95/70 332/96/70 329/97/70
f 2/98/71 4/99/71 45/100/71
f 44/101/72 2/98/72 45/100/72
f 44/102/73 45/90/73 189/89/73 212/103/73
f 34/104/74 29/105/74 46/106/74 47/107/74
f 34/71/75 47/108/75 31/70/75
f 216/109/76 35/65/76 209/110/76
f 30/82/77 35/65/77 216/109/77
f 28/81/78 30/82/78 47/107/78 46/106/78
f 209/110/79 35/65/79 208/85/79
f 259/111/80 47/107/80 216/109/80
f 32/112/81 46/106/81 29/105/81
f 33/113/82 48/114/82 46/115/82 32/116/82
f 27/78/83 28/79/83 46/115/83 48/114/83
f 45/100/84 332/96/84 327/117/84 26/57/84
f 49/93/85 53/118/85 54/119/85 50/91/85
f 53/118/86 55/120/86 54/119/86
f 51/121/87 57/122/87 56/123/87 49/93/87
f 57/122/88 58/124/88 56/123/88
f 52/95/89 59/125/89 60/126/89 51/127/89
f 59/125/90 61/128/90 60/126/90
f 50/91/91 54/119/91 67/129/91 62/130/91
f 58/124/92 63/131/92 56/123/92
f 57/122/93 64/132/93 58/124/93
f 61/128/94 64/133/94 60/126/94
f 53/118/95 63/131/95 55/120/95
f 56/123/96 63/131/96 49/93/96
f 49/93/97 63/131/97 53/118/97
f 51/121/98 64/132/98 57/122/98
f 60/126/99 64/133/99 51/127/99
f 67/134/100 54/135/100 65/136/100
f 55/137/101 65/136/101 54/135/101
f 64/138/102 142/139/102 58/140/102
f 63/141/103 58/140/103 142/139/103
f 59/142/104 66/143/104 61/144/104
f 64/138/105 61/144/105 66/143/105
f 142/139/106 64/138/106 66/143/106
f 63/141/107 142/139/107 55/137/107
f 65/136/108 55/137/108 142/139/108
f 62/94/109 67/145/109 52/95/109
f 52/95/110 67/145/110 59/125/110
f 66/143/111 59/142/111 67/134/111
f 67/134/112 142/139/112 66/143/112
f 24/58/113 26/57/113 327/117/113 337/146/113
f 6/12/114 24/52/114 337/147/114 335/92/114
f 68/148/115 72/149/115 73/150/115 69/151/115
f 72/149/116 74/152/116 73/150/116
f 70/153/117 76/154/117 75/155/117 68/148/117
f 76/154/118 77/156/118 75/155/118
f 71/157/119 78/158/119 79/159/119 70/153/119
f 78/158/120 80/160/120 79/159/120
f 69/151/121 73/150/121 88/161/121 81/162/121
f 77/156/122 82/163/122 75/155/122
f 76/154/123 83/164/123 77/156/123
f 80/160/124 83/164/124 79/159/124
f 72/149/125 82/163/125 74/152/125
f 75/155/126 82/163/126 68/148/126
f 68/148/127 82/163/127 72/149/127
f 70/153/128 83/164/128 76/154/128
f 79/159/129 83/164/129 70/153/129
f 88/165/130 73/166/130 84/167/130
f 74/168/131 84/167/131 73/166/131
f 83/169/132 85/170/132 77/171/132
f 82/172/133 77/171/133 85/170/133
f 78/173/134 86/174/134 80/175/134
f 83/169/135 80/175/135 86/174/135
f 85/170/136 83/169/136 86/174/136
f 87/176/137 82/172/137 85/170/137
f 82/172/138 87/176/138 74/168/138
f 84/167/139 74/168/139 87/176/139
f 86/174/140 87/176/140 85/170/140
f 81/177/141 88/178/141 71/157/141
f 71/157/142 88/178/142 78/158/142
f 86/174/143 78/173/143 88/165/143
f 84/167/144 87/176/144 86/174/144 88/165/144
f 42/74/145 69/179/145 81/180/145 33/75/145
f 69/179/146 42/74/146 68/181/146
f 42/74/147 27/78/147 70/182/147 68/181/147
f 27/78/148 48/114/148 71/183/148 70/182/148
f 33/113/149 81/184/149 71/183/149 48/114/149
f 89/83/150 31/70/150 47/108/150 259/185/150
f 41/68/151 31/70/151 89/83/151
f 90/186/152 91/187/152 262/188/152 260/189/152
f 259/190/153 264/191/153 91/187/153 90/186/153
f 91/187/154 92/192/154 265/193/154 262/188/154
f 264/191/155 267/194/155 92/192/155 91/187/155
f 92/192/156 93/195/156 268/196/156 265/193/156
f 267/194/157 270/197/157 93/195/157 92/192/157
f 93/195/158 94/198/158 271/199/158 268/196/158
f 270/197/159 273/200/159 94/198/159 93/195/159
f 94/198/160 273/200/160 276/201/160 95/202/160
f 271/199/161 94/198/161 95/202/161 274/203/161
f 95/202/162 276/201/162 277/204/162
f 274/203/163 95/202/163 277/204/163
f 89/205/164 90/186/164 260/189/164 199/206/164
f 259/190/165 90/186/165 89/205/165
f 38/66/166 41/68/166 89/83/166
f 22/46/167 18/45/167 23/48/167
f 324/207/168 166/208/168 12/209/168
f 106/210/169 105/211/169 126/212/169
f 108/213/170 106/210/170 126/212/170
f 99/214/171 98/215/171 114/216/171 115/217/171
f 100/218/172 99/214/172 115/217/172
f 116/219/173 117/220/173 100/218/173
f 107/221/174 116/219/174 100/218/174
f 102/222/175 101/223/175 118/224/175
f 103/225/176 102/222/176 118/224/176
f 101/223/177 117/220/177 116/219/177 118/224/177
f 127/226/178 118/224/178 116/219/178 107/221/178
f 23/227/179 12/228/179 113/229/179 119/230/179
f 119/230/180 112/231/180 111/232/180 120/233/180
f 96/234/181 119/230/181 120/233/181 97/235/181
f 112/231/182 119/230/182 113/229/182
f 22/236/183 23/227/183 119/230/183 96/234/183
f 127/226/184 114/216/184 121/237/184
f 127/226/185 121/237/185 126/212/185
f 111/232/186 128/238/186 120/233/186
f 121/237/187 124/239/187 123/240/187
f 110/241/188 109/242/188 121/237/188
f 126/212/189 121/237/189 109/242/189
f 104/243/190 103/225/190 122/244/190
f 126/212/191 105/211/191 122/244/191
f 115/217/192 107/221/192 100/218/192
f 105/211/193 104/243/193 122/244/193
f 103/225/194 118/224/194 122/244/194
f 126/212/195 109/242/195 108/213/195
f 125/245/196 124/239/196 128/238/196
f 114/216/197 127/226/197 107/221/197 115/217/197
f 118/224/198 127/226/198 126/212/198 122/244/198
f 110/241/199 121/237/199 123/240/199
f 120/233/200 128/238/200 121/237/200 114/216/200
f 97/235/201 120/233/201 114/216/201
f 128/238/202 124/239/202 121/237/202
f 97/235/203 114/216/203 98/215/203
f 129/246/204 125/245/204 128/238/204
f 111/232/205 129/246/205 128/238/205
f 131/247/206 105/248/206 132/249/206
f 105/248/207 106/250/207 132/249/207
f 105/248/208 131/247/208 104/251/208
f 104/251/209 131/247/209 103/252/209
f 130/253/210 132/249/210 110/254/210
f 110/254/211 132/249/211 109/255/211
f 109/255/212 132/249/212 108/256/212
f 108/256/213 132/249/213 106/250/213
f 123/257/214 130/253/214 110/254/214
f 124/258/215 130/253/215 123/257/215
f 125/259/216 130/253/216 124/258/216
f 133/260/217 130/253/217 125/259/217
f 129/261/218 133/260/218 125/259/218
f 111/262/219 133/260/219 129/261/219
f 99/263/220 136/264/220 135/265/220 98/266/220
f 100/218/221 136/264/221 99/263/221
f 137/267/222 100/218/222 117/220/222
f 134/268/223 100/218/223 137/267/223
f 101/223/224 138/269/224 137/267/224 117/220/224
f 141/270/225 134/268/225 137/267/225 138/269/225
f 139/271/226 113/272/226 12/209/226
f 139/271/227 140/273/227 111/262/227 112/274/227
f 96/275/228 97/276/228 140/273/228 139/271/228
f 112/274/229 113/272/229 139/271/229
f 22/277/230 96/275/230 139/271/230 166/208/230
f 141/270/231 130/253/231 135/265/231
f 141/270/232 132/249/232 130/253/232
f 111/262/233 140/273/233 133/260/233
f 136/264/234 100/218/234 134/268/234
f 135/265/235 136/264/235 134/268/235 141/270/235
f 138/269/236 131/247/236 132/249/236 141/270/236
f 140/273/237 135/265/237 130/253/237 133/260/237
f 97/276/238 135/265/238 140/273/238
f 97/276/239 98/266/239 135/265/239
f 101/223/240 102/222/240 138/269/240
f 103/252/241 138/269/241 102/222/241
f 131/247/242 138/269/242 103/252/242
f 166/208/243 139/271/243 12/209/243
f 180/61/244 324/278/244 12/49/244
f 7/7/245 25/16/245 5/8/245
f 65/136/246 142/139/246 67/134/246
f 47/107/247 30/82/247 216/109/247
f 187/279/248 147/280/248 144/281/248
f 174/282/249 183/283/249 169/284/249
f 149/285/250 173/286/250 145/287/250 147/288/250
f 174/282/251 173/286/251 149/285/251
f 146/289/252 333/290/252 326/291/252 148/292/252
f 144/281/253 146/289/253 148/292/253
f 143/293/254 174/282/254 149/285/254
f 157/294/255 151/295/255 158/296/255
f 151/295/256 157/294/256 156/297/256 160/298/256
f 155/299/257 157/294/257 154/300/257
f 153/301/258 158/296/258 152/302/258
f 158/296/259 151/295/259 152/302/259
f 160/298/260 156/297/260 159/303/260 150/304/260
f 153/301/261 154/300/261 157/294/261 158/296/261
f 156/297/262 157/294/262 155/299/262
f 156/305/263 155/306/263 161/307/263 170/308/263
f 159/309/264 156/310/264 170/308/264 171/311/264
f 172/312/265 159/309/265 171/311/265
f 159/309/266 168/313/266 150/314/266
f 172/312/267 168/313/267 159/309/267
f 173/286/268 174/282/268 172/312/268
f 168/313/269 172/312/269 174/282/269
f 162/315/270 171/311/270 170/308/270 161/307/270
f 163/316/271 176/317/271 171/311/271 162/315/271
f 164/318/272 177/319/272 176/317/272 163/316/272
f 165/320/273 178/321/273 177/319/273 164/318/273
f 175/322/274 171/311/274 177/319/274
f 172/312/275 171/311/275 175/322/275
f 177/319/276 178/321/276 175/322/276
f 173/286/277 172/312/277 175/322/277
f 178/321/278 165/320/278 179/323/278
f 175/322/279 178/321/279 179/323/279
f 165/320/280 166/324/280 179/323/280
f 175/322/281 182/325/281 173/286/281
f 177/319/282 171/311/282 176/317/282
f 145/287/283 182/325/283 167/326/283
f 173/286/284 182/325/284 145/287/284
f 183/283/285 174/282/285 184/327/285
f 174/282/286 185/328/286 184/327/286
f 186/329/287 143/330/287 187/279/287 148/292/287
f 148/292/288 187/279/288 144/281/288
f 185/331/289 143/332/289 188/333/289
f 143/293/290 185/328/290 174/282/290
f 190/334/291 143/335/291 186/336/291
f 188/333/292 143/332/292 190/337/292
f 180/338/293 210/339/293 145/287/293 167/326/293
f 181/340/294 202/341/294 210/339/294 180/338/294
f 200/342/295 210/339/295 202/341/295
f 203/343/296 200/342/296 202/341/296
f 199/344/297 203/343/297 202/341/297 181/340/297
f 206/345/298 195/346/298 205/347/298
f 205/347/299 195/346/299 198/348/299
f 204/349/300 205/347/300 198/348/300 193/350/300
f 207/351/301 204/352/301 196/353/301 197/354/301
f 191/355/302 192/356/302 204/352/302 207/351/302
f 193/350/303 196/357/303 204/349/303
f 192/358/304 194/359/304 205/347/304 204/349/304
f 200/342/305 205/347/305 194/359/305
f 203/343/306 199/344/306 258/360/306
f 200/342/307 203/343/307 206/345/307
f 206/345/308 205/347/308 200/342/308
f 200/342/309 208/361/309 201/362/309
f 201/362/310 210/339/310 200/342/310
f 147/288/311 145/287/311 210/339/311 201/362/311
f 147/280/312 211/363/312 144/281/312
f 201/362/313 211/364/313 147/288/313
f 208/361/314 212/365/314 211/364/314 201/362/314
f 189/366/315 188/333/315 190/337/315 213/367/315
f 219/368/316 218/369/316 328/370/316 326/291/316
f 231/371/317 333/372/317 336/373/317 221/374/317
f 144/375/318 213/376/318 146/377/318
f 211/378/319 213/376/319 144/375/319
f 211/379/320 212/380/320 189/366/320 213/367/320
f 198/381/321 215/382/321 214/383/321 193/384/321
f 198/348/322 195/346/322 215/385/322
f 216/386/323 209/387/323 200/342/323
f 194/359/324 216/386/324 200/342/324
f 192/358/325 214/383/325 215/382/325 194/359/325
f 209/387/326 208/361/326 200/342/326
f 259/388/327 216/386/327 215/382/327
f 196/389/328 193/384/328 214/383/328
f 197/390/329 196/391/329 214/392/329 217/393/329
f 191/355/330 217/393/330 214/392/330 192/356/330
f 213/376/331 190/334/331 331/394/331 336/373/331
f 218/369/332 219/368/332 223/395/332 222/396/332
f 222/396/333 223/395/333 224/397/333
f 220/398/334 218/369/334 225/399/334 226/400/334
f 226/400/335 225/399/335 227/401/335
f 221/374/336 220/402/336 229/403/336 228/404/336
f 228/404/337 229/403/337 230/405/337
f 219/368/338 231/406/338 236/407/338 223/395/338
f 227/401/339 225/399/339 232/408/339
f 226/400/340 227/401/340 233/409/340
f 230/405/341 229/403/341 233/410/341
f 222/396/342 224/397/342 232/408/342
f 225/399/343 218/369/343 232/408/343
f 218/369/344 222/396/344 232/408/344
f 220/398/345 226/400/345 233/409/345
f 229/403/346 220/402/346 233/410/346
f 236/411/347 234/412/347 223/413/347
f 224/414/348 223/413/348 234/412/348
f 233/415/349 227/416/349 325/417/349
f 232/418/350 325/417/350 227/416/350
f 228/419/351 230/420/351 235/421/351
f 233/415/352 235/421/352 230/420/352
f 325/417/353 235/421/353 233/415/353
f 232/418/354 224/414/354 325/417/354
f 234/412/355 325/417/355 224/414/355
f 231/371/356 221/374/356 236/422/356
f 221/374/357 228/404/357 236/422/357
f 235/421/358 236/411/358 228/419/358
f 236/411/359 235/421/359 325/417/359
f 186/336/360 330/423/360 331/394/360 190/334/360
f 148/292/361 328/370/361 330/424/361 186/329/361
f 237/425/362 238/426/362 242/427/362 241/428/362
f 241/428/363 242/427/363 243/429/363
f 239/430/364 237/425/364 244/431/364 245/432/364
f 245/432/365 244/431/365 246/433/365
f 240/434/366 239/430/366 248/435/366 247/436/366
f 247/436/367 248/435/367 249/437/367
f 238/426/368 250/438/368 257/439/368 242/427/368
f 246/433/369 244/431/369 251/440/369
f 245/432/370 246/433/370 252/441/370
f 249/437/371 248/435/371 252/441/371
f 241/428/372 243/429/372 251/440/372
f 244/431/373 237/425/373 251/440/373
f 237/425/374 241/428/374 251/440/374
f 239/430/375 245/432/375 252/441/375
f 248/435/376 239/430/376 252/441/376
f 257/442/377 253/443/377 242/444/377
f 243/445/378 242/444/378 253/443/378
f 252/446/379 246/447/379 254/448/379
f 251/449/380 254/448/380 246/447/380
f 247/450/381 249/451/381 255/452/381
f 252/446/382 255/452/382 249/451/382
f 254/448/383 255/452/383 252/446/383
f 256/453/384 254/448/384 251/449/384
f 251/449/385 243/445/385 256/453/385
f 253/443/386 256/453/386 243/445/386
f 255/452/387 254/448/387 256/453/387
f 250/454/388 240/434/388 257/455/388
f 240/434/389 247/436/389 257/455/389
f 255/452/390 257/442/390 247/450/390
f 253/443/391 257/442/391 255/452/391 256/453/391
f 207/351/392 197/354/392 250/456/392 238/457/392
f 238/457/393 237/458/393 207/351/393
f 207/351/394 237/458/394 239/459/394 191/355/394
f 191/355/395 239/459/395 240/460/395 217/393/395
f 197/390/396 217/393/396 240/460/396 250/461/396
f 258/360/397 259/462/397 215/385/397 195/346/397
f 206/345/398 258/360/398 195/346/398
f 261/463/399 260/464/399 262/465/399 263/466/399
f 259/467/400 261/463/400 263/466/400 264/468/400
f 263/466/401 262/465/401 265/469/401 266/470/401
f 264/468/402 263/466/402 266/470/402 267/471/402
f 266/470/403 265/469/403 268/472/403 269/473/403
f 267/471/404 266/470/404 269/473/404 270/474/404
f 269/473/405 268/472/405 271/475/405 272/476/405
f 270/474/406 269/473/406 272/476/406 273/477/406
f 272/476/407 275/478/407 276/479/407 273/477/407
f 271/475/408 274/480/408 275/478/408 272/476/408
f 275/478/409 277/481/409 276/479/409
f 274/480/410 277/481/410 275/478/410
f 258/482/411 199/483/411 260/464/411 261/463/411
f 259/467/412 258/482/412 261/463/412
f 203/343/413 258/360/413 206/345/413
f 179/323/414 182/325/414 175/322/414
f 324/484/415 167/485/415 166/486/415
f 288/487/416 308/488/416 287/489/416
f 290/490/417 308/488/417 288/487/417
f 281/491/418 297/492/418 296/493/418 280/494/418
f 282/495/419 297/492/419 281/491/419
f 298/496/420 282/495/420 299/497/420
f 289/498/421 282/495/421 298/496/421
f 284/499/422 300/500/422 283/501/422
f 285/502/423 300/500/423 284/499/423
f 283/501/424 300/500/424 298/496/424 299/497/424
f 309/503/425 289/498/425 298/496/425 300/500/425
f 182/504/426 301/505/426 295/506/426 167/507/426
f 301/505/427 302/508/427 293/509/427 294/510/427
f 278/511/428 279/512/428 302/508/428 301/505/428
f 294/510/429 295/506/429 301/505/429
f 179/513/430 278/511/430 301/505/430 182/504/430
f 309/503/431 303/514/431 296/493/431
f 309/503/432 308/488/432 303/514/432
f 293/509/433 302/508/433 310/515/433
f 303/514/434 305/516/434 306/517/434
f 292/518/435 303/514/435 291/519/435
f 308/488/436 291/519/436 303/514/436
f 286/520/437 304/521/437 285/502/437
f 308/488/438 304/521/438 287/489/438
f 297/492/439 282/495/439 289/498/439
f 287/489/440 304/521/440 286/520/440
f 285/502/441 304/521/441 300/500/441
f 308/488/442 290/490/442 291/519/442
f 307/522/443 310/515/443 306/517/443
f 296/493/444 297/492/444 289/498/444 309/503/444
f 300/500/445 304/521/445 308/488/445 309/503/445
f 292/518/446 305/516/446 303/514/446
f 302/508/447 296/493/447 303/514/447 310/515/447
f 279/512/448 296/493/448 302/508/448
f 310/515/449 303/514/449 306/517/449
f 279/512/450 280/494/450 296/493/450
f 311/523/451 310/515/451 307/522/451
f 293/509/452 310/515/452 311/523/452
f 313/524/453 314/525/453 287/526/453
f 287/526/454 314/525/454 288/527/454
f 287/526/455 286/528/455 313/524/455
f 286/528/456 285/529/456 313/524/456
f 312/530/457 292/531/457 314/525/457
f 292/531/458 291/532/458 314/525/458
f 291/532/459 290/533/459 314/525/459
f 290/533/460 288/527/460 314/525/460
f 305/534/461 292/531/461 312/530/461
f 306/535/462 305/534/462 312/530/462
f 307/536/463 306/535/463 312/530/463
f 315/537/464 307/536/464 312/530/464
f 311/538/465 307/536/465 315/537/465
f 293/539/466 311/538/466 315/537/466
f 281/540/467 280/541/467 317/542/467 318/543/467
f 282/495/468 281/540/468 318/543/468
f 319/544/469 299/497/469 282/495/469
f 316/545/470 319/544/470 282/495/470
f 283/501/471 299/497/471 319/544/471 320/546/471
f 323/547/472 320/546/472 319/544/472 316/545/472
f 321/548/473 167/485/473 295/549/473
f 321/548/474 294/550/474 293/539/474 322/551/474
f 278/552/475 321/548/475 322/551/475 279/553/475
f 294/550/476 321/548/476 295/549/476
f 179/554/477 166/486/477 321/548/477 278/552/477
f 323/547/478 317/542/478 312/530/478
f 323/547/479 312/530/479 314/525/479
f 293/539/480 315/537/480 322/551/480
f 318/543/481 316/545/481 282/495/481
f 317/542/482 323/547/482 316/545/482 318/543/482
f 320/546/483 323/547/483 314/525/483 313/524/483
f 322/551/484 315/537/484 312/530/484 317/542/484
f 279/553/485 322/551/485 317/542/485
f 279/553/486 317/542/486 280/541/486
f 283/501/487 320/546/487 284/499/487
f 285/529/488 284/499/488 320/546/488
f 313/524/489 285/529/489 320/546/489
f 166/486/490 167/485/490 321/548/490
f 180/338/491 167/326/491 324/555/491
f 149/285/492 147/288/492 187/556/492
f 234/412/493 236/411/493 325/417/493
f 215/382/494 216/386/494 194/359/494
f 17/4/495 1/15/495 7/7/495
f 187/556/496 143/293/496 149/285/496
f 169/5/497 17/4/497 168/37/497
f 169/284/498 168/313/498 174/282/498
f 330/424/499 328/370/499 218/369/499 220/398/499
f 326/291/500 333/290/500 231/406/500 219/368/500
f 335/92/501 334/13/501 6/12/501
f 335/92/502 337/147/502 51/121/502 49/93/502
f 329/14/503 334/13/503 50/91/503 62/130/503
f 336/373/504 333/372/504 146/377/504 213/376/504
f 331/394/505 330/423/505 220/402/505 221/374/505
f 329/97/506 332/96/506 45/100/506 4/99/506
f 336/373/507 331/394/507 221/374/507
f 337/146/508 327/117/508 52/95/508 51/127/508
f 327/117/509 332/96/509 52/95/509
f 326/291/510 328/370/510 148/292/510
